<svg xmlns="http://www.w3.org/2000/svg" width="16" height="18" viewBox="0 0 16 18" fill="none">
  <path d="M15.3272 12.7453C14.8936 11.9984 14.2491 9.88516 14.2491 7.125C14.2491 5.4674 13.5906 3.87769 12.4185 2.70558C11.2464 1.53348 9.6567 0.875 7.99909 0.875C6.34149 0.875 4.75178 1.53348 3.57968 2.70558C2.40757 3.87769 1.74909 5.4674 1.74909 7.125C1.74909 9.88594 1.10378 11.9984 0.670188 12.7453C0.559462 12.9352 0.500762 13.1509 0.500007 13.3707C0.499253 13.5905 0.556471 13.8066 0.66589 13.9973C0.77531 14.1879 0.933063 14.3463 1.12324 14.4565C1.31342 14.5667 1.52929 14.6248 1.74909 14.625H4.93738C5.08157 15.3306 5.46505 15.9647 6.02295 16.4201C6.58085 16.8756 7.27892 17.1243 7.99909 17.1243C8.71927 17.1243 9.41734 16.8756 9.97524 16.4201C10.5331 15.9647 10.9166 15.3306 11.0608 14.625H14.2491C14.4688 14.6247 14.6846 14.5665 14.8747 14.4562C15.0647 14.346 15.2224 14.1875 15.3317 13.9969C15.441 13.8063 15.4982 13.5903 15.4974 13.3705C15.4966 13.1508 15.4379 12.9351 15.3272 12.7453ZM7.99909 15.875C7.61145 15.8749 7.23338 15.7546 6.91691 15.5308C6.60043 15.3069 6.36112 14.9905 6.23191 14.625H9.76628C9.63707 14.9905 9.39776 15.3069 9.08128 15.5308C8.76481 15.7546 8.38674 15.8749 7.99909 15.875Z" fill="#D9D9D9"/>
</svg>