<svg xmlns="http://www.w3.org/2000/svg" width="19" height="20" viewBox="0 0 19 20" fill="none">
  <path d="M15.0787 17.1561V17.1562C15.0787 17.3558 14.8257 17.5722 14.5405 17.4421L10.0848 15.4082C9.71454 15.2392 9.2853 15.2392 8.91508 15.4082L4.45931 17.4421C4.17418 17.5722 3.92114 17.3558 3.92114 17.1562V17.1561L3.92053 15.1763V15.1762L3.91992 2.84183C3.91992 2.84183 3.91992 2.84182 3.91992 2.84182C3.91993 2.68926 4.0588 2.51953 4.28849 2.51953H14.7114C14.941 2.51953 15.0799 2.68925 15.0799 2.84181C15.0799 2.84182 15.0799 2.84182 15.0799 2.84183L15.0793 15.1762V15.1763L15.0787 17.1561Z" stroke="currentColor"/>
</svg>