<svg width="24" height="24" viewBox="0 0 24 24" fill="none" xmlns="http://www.w3.org/2000/svg">
<path d="M4.64645 18.0815C4.45118 18.2767 4.45118 18.5933 4.64645 18.7886C4.84171 18.9838 5.15829 18.9838 5.35355 18.7886L11.7178 12.4244L18.082 18.7886C18.2773 18.9838 18.5938 18.9838 18.7891 18.7886C18.9844 18.5933 18.9844 18.2767 18.7891 18.0815L12.4249 11.7173L18.7886 5.35355C18.9838 5.15829 18.9838 4.84171 18.7886 4.64645C18.5933 4.45118 18.2767 4.45118 18.0815 4.64645L11.7178 11.0101L5.35407 4.64645C5.15881 4.45119 4.84223 4.45119 4.64696 4.64645C4.4517 4.84171 4.4517 5.15829 4.64696 5.35355L11.0107 11.7173L4.64645 18.0815Z" fill="currentColor"/>
</svg>
