<svg xmlns="http://www.w3.org/2000/svg" width="24" height="24" viewBox="0 0 24 24" fill="none">
  <path fill-rule="evenodd" clip-rule="evenodd" d="M12 22C17.5228 22 22 17.5228 22 12C22 6.47715 17.5228 2 12 2C6.47715 2 2 6.47715 2 12C2 17.5228 6.47715 22 12 22ZM16.8536 9.35355C17.0488 9.15829 17.0488 8.84171 16.8536 8.64645C16.6583 8.45118 16.3417 8.45118 16.1464 8.64645L11.0282 13.7647L8.37963 10.6746C8.19992 10.4649 7.88427 10.4407 7.6746 10.6204C7.46494 10.8001 7.44066 11.1157 7.62037 11.3254L10.6204 14.8254C10.711 14.9311 10.8416 14.9943 10.9808 14.9996C11.12 15.005 11.2551 14.952 11.3536 14.8536L16.8536 9.35355Z" fill="#FB5531"/>
</svg>