<svg width="24" height="24" viewBox="0 0 24 24" fill="currentColor" xmlns="http://www.w3.org/2000/svg">
<g id="Icon / Home">
<path id="Subtract" d="M11.6877 2.8902C11.8703 2.74412 12.1298 2.74412 12.3124 2.89021L21.3123 10.0902C21.431 10.1851 21.5 10.3287 21.5 10.4806V21C21.5 21.2762 21.2761 21.5 21 21.5H16C15.7239 21.5 15.5 21.2762 15.5 21V15C15.5 14.1716 14.8284 13.5 14 13.5H10C9.17157 13.5 8.5 14.1716 8.5 15V21C8.5 21.2762 8.27614 21.5 8 21.5H3C2.72386 21.5 2.5 21.2762 2.5 21V10.4806C2.5 10.3287 2.56905 10.1851 2.68765 10.0902L11.6877 2.8902Z" stroke="currentColor"/>
</g>
</svg>
