<svg width="24" height="24" viewBox="0 0 24 24" fill="none" xmlns="http://www.w3.org/2000/svg">
<g id="Icon / My">
<g id="Union">
<path fill-rule="evenodd" clip-rule="evenodd" d="M17 7C17 9.76142 14.7614 12 12 12C9.23858 12 7 9.76142 7 7C7 4.23858 9.23858 2 12 2C14.7614 2 17 4.23858 17 7ZM16 7C16 9.20914 14.2091 11 12 11C9.79086 11 8 9.20914 8 7C8 4.79086 9.79086 3 12 3C14.2091 3 16 4.79086 16 7Z" fill="currentColor"/>
<path fill-rule="evenodd" clip-rule="evenodd" d="M2 21.5714C2 16.8376 5.83756 13 10.5714 13H13.4286C18.1624 13 22 16.8376 22 21.5714C22 21.8081 21.8081 22 21.5714 22H2.42857C2.19188 22 2 21.8081 2 21.5714ZM3.02124 21C3.31335 17.0853 6.58208 14 10.5714 14H13.4286C17.4179 14 20.6867 17.0853 20.9788 21H3.02124Z" fill="currentColor"/>
</g>
</g>
</svg>
