<svg xmlns="http://www.w3.org/2000/svg" width="16" height="17" viewBox="0 0 16 17" fill="none">
  <path d="M3.09763 12.5543C2.96746 12.6845 2.96746 12.8955 3.09763 13.0257C3.22781 13.1559 3.43886 13.1559 3.56904 13.0257L7.81185 8.78291L12.0547 13.0257C12.1848 13.1559 12.3959 13.1559 12.5261 13.0257C12.6562 12.8955 12.6562 12.6845 12.5261 12.5543L8.28325 8.3115L12.5257 4.06904C12.6559 3.93886 12.6559 3.72781 12.5257 3.59763C12.3955 3.46746 12.1845 3.46746 12.0543 3.59763L7.81185 7.8401L3.56938 3.59763C3.43921 3.46746 3.22815 3.46746 3.09798 3.59763C2.9678 3.72781 2.9678 3.93886 3.09798 4.06904L7.34044 8.3115L3.09763 12.5543Z" fill="#FB5531"/>
</svg>