<svg width="24" height="24" viewBox="0 0 24 24" fill="none" xmlns="http://www.w3.org/2000/svg">
<g id="Icon / Pacman">
<path id="Ellipse 21 (Stroke)" fill-rule="evenodd" clip-rule="evenodd" d="M19.246 17.3382C18.2773 18.6531 16.9647 19.6851 15.4442 20.3149C13.6138 21.0731 11.5843 21.2061 9.67063 20.6933C7.75693 20.1806 6.0659 19.0507 4.85982 17.4789C3.65374 15.9071 3 13.9812 3 12C3 10.0188 3.65374 8.09295 4.85982 6.52115C6.0659 4.94935 7.75693 3.81945 9.67063 3.30667C11.5843 2.7939 13.6138 2.92691 15.4441 3.68509C16.9647 4.31491 18.2773 5.3469 19.246 6.66183L12.25 10.701C11.25 11.2783 11.25 12.7217 12.25 13.299L19.246 17.3382ZM20.3995 17.4266C20.5494 17.1947 20.4664 16.8881 20.2272 16.75L12.75 12.433C12.4167 12.2406 12.4167 11.7594 12.75 11.567L20.2272 7.25C20.4664 7.11193 20.5494 6.80533 20.3995 6.57338C19.2999 4.87123 17.7063 3.53971 15.8268 2.76121C13.7931 1.91879 11.5381 1.771 9.41181 2.34075C7.28547 2.9105 5.40656 4.16595 4.06647 5.91239C2.72637 7.65883 2 9.79866 2 12C2 14.2013 2.72637 16.3412 4.06647 18.0876C5.40656 19.8341 7.28548 21.0895 9.41181 21.6593C11.5381 22.229 13.7931 22.0812 15.8268 21.2388C17.7063 20.4603 19.2999 19.1288 20.3995 17.4266Z" fill="currentColor"/>
</g>
</svg>
