<svg xmlns="http://www.w3.org/2000/svg" width="24" height="24" viewBox="0 0 24 24" fill="none">
<path d="M18.7071 2.20696L22.2929 5.79274C22.6834 6.18327 22.6834 6.81643 22.2929 7.20696L20.2071 9.29274C19.8166 9.68327 19.1834 9.68327 18.7929 9.29274L15.2071 5.70695C14.8166 5.31643 14.8166 4.68327 15.2071 4.29274L17.2929 2.20696C17.6834 1.81643 18.3166 1.81643 18.7071 2.20696Z" fill="#777777"/>
<path d="M3 21.9996H5.98466L6 21.9998H22C22.2761 21.9998 22.5 21.776 22.5 21.4998C22.5 21.2237 22.2761 20.9998 22 20.9998H7.99977L17.7927 11.207C18.1832 10.8164 18.1832 10.1833 17.7927 9.79274L14.2069 6.20695C13.8164 5.81643 13.1832 5.81643 12.7927 6.20696L2.29289 16.7067C2.10536 16.8943 2 17.1486 2 17.4138V20.9996C2 21.5519 2.44772 21.9996 3 21.9996Z" fill="#777777"/>
</svg>