<svg xmlns="http://www.w3.org/2000/svg" width="20" height="20" viewBox="0 0 20 20" fill="none">
<path d="M7.09268 2.08326C7.30083 1.73446 7.72056 1.58072 8.09996 1.71432L17.76 5.11584C18.5186 5.38298 18.5252 6.47038 17.7699 6.74703L2.81009 12.2263C2.05477 12.503 1.37666 11.6615 1.79287 10.9641L7.09268 2.08326Z" fill="#FAFAFA"/>
<path d="M1.73702 14.3228C1.57745 13.8733 1.8068 13.3776 2.24928 13.2155L17.1767 7.74767C17.6192 7.58559 18.1072 7.81855 18.2668 8.268C18.4263 8.71745 18.197 9.21319 17.7545 9.37527L2.82711 14.8431C2.38463 15.0052 1.89658 14.7722 1.73702 14.3228Z" fill="#FAFAFA"/>
<path d="M2.23236 15.8969C1.89503 16.0204 1.67002 16.3454 1.6696 16.7096L1.66871 17.4663C1.668 18.0661 2.25381 18.4846 2.8093 18.2811L17.756 12.8063C18.0933 12.6827 18.3183 12.3578 18.3188 11.9936L18.3197 11.2368C18.3204 10.637 17.7346 10.2185 17.1791 10.4219L2.23236 15.8969Z" fill="#FAFAFA"/>
</svg>