<svg width="24" height="24" viewBox="0 0 24 24" fill="none" xmlns="http://www.w3.org/2000/svg">
<g id="Icon / Scrap">
<g id="Union">
<path d="M10 10.5C9.72386 10.5 9.5 10.7239 9.5 11C9.5 11.2761 9.72386 11.5 10 11.5H14C14.2761 11.5 14.5 11.2761 14.5 11C14.5 10.7239 14.2761 10.5 14 10.5H10Z" fill="currentColor"/>
<path fill-rule="evenodd" clip-rule="evenodd" d="M2 7C2 7.74028 2.4022 8.38663 3 8.73244V20C3 21.1046 3.89543 22 5 22H19C20.1046 22 21 21.1046 21 20V8.73244C21.5978 8.38663 22 7.74028 22 7V4C22 2.89543 21.1046 2 20 2H4C2.89543 2 2 2.89543 2 4V7ZM20 3H4C3.44772 3 3 3.44772 3 4V7C3 7.55228 3.44772 8 4 8H20C20.5523 8 21 7.55228 21 7V4C21 3.44772 20.5523 3 20 3ZM4 9H20V20C20 20.5523 19.5523 21 19 21H5C4.44772 21 4 20.5523 4 20L4 9Z" fill="currentColor"/>
</g>
</g>
</svg>
