<svg width="15" height="18" viewBox="0 0 15 18" fill="none" xmlns="http://www.w3.org/2000/svg">
<path id="SF Symbol / share.and.arrow.up" d="M7.49577 11.7554C7.85915 11.7554 8.17183 11.4683 8.17183 11.1334V2.94284L8.12113 1.74657L8.68732 2.3128L9.97183 3.60478C10.0901 3.73239 10.2592 3.79619 10.4282 3.79619C10.7746 3.79619 11.0451 3.55693 11.0451 3.22995C11.0451 3.06247 10.969 2.93487 10.8423 2.81524L7.98592 0.21533C7.8169 0.0558263 7.67324 0 7.49577 0C7.32676 0 7.1831 0.0558263 7.00563 0.21533L4.1493 2.81524C4.02254 2.93487 3.95493 3.06247 3.95493 3.22995C3.95493 3.55693 4.20845 3.79619 4.56338 3.79619C4.72394 3.79619 4.90986 3.73239 5.02817 3.60478L6.30423 2.3128L6.87887 1.74657L6.82817 2.94284V11.1334C6.82817 11.4683 7.13239 11.7554 7.49577 11.7554ZM2.65352 18H12.3465C14.1127 18 15 17.1706 15 15.5277V7.56845C15 5.92556 14.1127 5.09615 12.3465 5.09615H9.98873V6.38015H12.3211C13.1577 6.38015 13.6394 6.81081 13.6394 7.64023V15.4559C13.6394 16.2853 13.1577 16.716 12.3211 16.716H2.67042C1.82535 16.716 1.36056 16.2853 1.36056 15.4559V7.64023C1.36056 6.81081 1.82535 6.38015 2.67042 6.38015H5.01127V5.09615H2.65352C0.887324 5.09615 0 5.92556 0 7.56845V15.5277C0 17.1706 0.887324 18 2.65352 18Z" fill="#FAFAFA"/>
</svg>
