<svg xmlns="http://www.w3.org/2000/svg" width="24" height="24" viewBox="0 0 24 24" fill="none">
  <path fill-rule="evenodd" clip-rule="evenodd" d="M1.99976 14.6625C2.23386 15.5424 2.58414 16.3871 3.04135 17.1745L5.80514 17.4982C6.02576 17.7467 6.26097 17.9819 6.50953 18.2025L6.81984 20.9648C7.60821 21.4192 8.45342 21.7669 9.33332 21.999L11.5055 20.2646C11.8375 20.2843 12.1705 20.2843 12.5026 20.2646L14.6747 22C15.5547 21.7659 16.3996 21.4157 17.1872 20.9586L17.4975 18.1973C17.746 17.9767 17.9812 17.7416 18.2019 17.493L20.9646 17.1828C21.4191 16.3945 21.7669 15.5495 21.999 14.6697L20.2644 12.498C20.284 12.1659 20.284 11.833 20.2644 11.501L22 9.32923C21.7659 8.44937 21.4156 7.6046 20.9584 6.81721L18.1967 6.50696C17.9761 6.25844 17.7409 6.02326 17.4923 5.80268L17.182 3.04038C16.3939 2.5842 15.5487 2.2347 14.6685 2.00103L12.4964 3.73535C12.1643 3.7157 11.8313 3.7157 11.4993 3.73535L9.32711 2C8.44858 2.23171 7.60475 2.57914 6.81777 3.03315L6.50746 5.79441C6.2589 6.01499 6.02369 6.25016 5.80307 6.49868L3.04031 6.80894C2.58406 7.59691 2.23449 8.44199 2.00079 9.32199L3.7354 11.4938C3.71575 11.8258 3.71575 12.1587 3.7354 12.4907L1.99976 14.6625ZM16.1332 11.9943C16.1332 14.279 14.2808 16.1311 11.9958 16.1311C9.71078 16.1311 7.8584 14.279 7.8584 11.9943C7.8584 9.70969 9.71078 7.85762 11.9958 7.85762C14.2808 7.85762 16.1332 9.70969 16.1332 11.9943Z" fill="currentColor"/>
</svg>