<svg width="100%" height="100%" viewBox="0 0 345 190" fill="none" xmlns="http://www.w3.org/2000/svg">
<g filter="url(#filter0_i_785_2021)">
<path d="M31.3266 59.1802C31.4293 58.6225 31.5309 58.0683 31.6318 57.5177C33.2337 48.7769 34.6662 40.9608 37.5324 34.61C40.4289 28.1923 44.595 23.7213 51.8289 21.7829C58.8721 19.8957 65.0859 22.0248 71.1802 26.5167C76.8036 30.6615 81.772 36.4011 86.6385 42.0228C87.1994 42.6707 87.7589 43.3171 88.3179 43.9593C90.1655 46.0818 91.7198 47.83 93.0484 49.3243C95.6552 52.2562 97.3929 54.2107 98.7717 56.0968C100.57 58.557 101.603 60.7232 102.769 65.0737C108.201 85.3454 96.1708 106.182 75.8991 111.614C55.6274 117.046 34.7906 105.016 29.3588 84.744C28.1353 80.1778 27.9405 78.5171 28.2132 75.9683C28.4149 74.0833 28.8433 71.9355 29.5189 68.5493C29.9959 66.1582 30.5961 63.1497 31.3266 59.1802Z" stroke="#CDE97C" stroke-width="10" stroke-linejoin="round"/>
</g>
<g filter="url(#filter1_i_785_2021)">
<mask id="path-2-inside-1_785_2021" fill="white">
<path d="M140.796 78.1155C154.767 61.7159 167.99 45.1048 188.835 50.6903C209.681 56.2758 213.195 80.3638 216.726 98.4608C220.257 116.558 221.867 119.479 218.899 130.556C211.794 157.075 184.536 172.813 158.017 165.707C131.498 158.601 115.76 131.343 122.866 104.824C125.834 93.7472 126.825 94.5151 140.796 78.1155Z"/>
</mask>
<path d="M148.408 84.6004C155.722 76.015 161.637 68.9059 168.074 64.2784C173.919 60.0774 179.388 58.5116 186.247 60.3495L191.423 41.031C177.437 37.2834 165.872 41.2304 156.401 48.0386C147.523 54.4201 139.841 63.8164 133.184 71.6306L148.408 84.6004ZM186.247 60.3495C192.725 62.0852 196.913 66.5711 200.11 73.8884C203.485 81.6091 205.044 90.809 206.911 100.376L226.541 96.546C224.877 88.0157 222.914 76.123 218.437 65.8791C213.783 55.2317 205.791 44.8808 191.423 41.031L186.247 60.3495ZM206.911 100.376C208.814 110.133 209.895 114.397 210.308 118.216C210.617 121.08 210.488 123.31 209.24 127.968L228.559 133.145C230.279 126.725 230.828 121.957 230.192 116.067C229.658 111.131 228.168 104.886 226.541 96.546L206.911 100.376ZM209.24 127.968C203.564 149.152 181.789 161.724 160.605 156.048L155.428 175.366C187.282 183.901 220.024 164.998 228.559 133.145L209.24 127.968ZM160.605 156.048C139.421 150.371 126.849 128.597 132.525 107.412L113.207 102.236C104.672 134.09 123.575 166.831 155.428 175.366L160.605 156.048ZM132.525 107.412C133.889 102.323 134.49 101.134 135.784 99.3588C137.87 96.4996 140.859 93.4616 148.408 84.6004L133.184 71.6306C126.762 79.169 122.271 83.9469 119.626 87.5729C116.19 92.2833 114.811 96.2481 113.207 102.236L132.525 107.412Z" fill="#CDE97C" mask="url(#path-2-inside-1_785_2021)"/>
</g>
<g filter="url(#filter2_i_785_2021)">
<mask id="path-4-inside-2_785_2021" fill="white">
<path d="M266.222 48.2812C275.396 37.5125 284.079 26.6049 297.767 30.2725C311.455 33.9402 313.763 49.7575 316.081 61.6408C318.399 73.5241 319.457 75.4424 317.508 82.7161C312.842 100.13 294.943 110.463 277.53 105.798C260.116 101.132 249.782 83.2328 254.448 65.8193C256.397 58.5456 257.048 59.0499 266.222 48.2812Z"/>
</mask>
<path d="M266.222 48.2812L258.61 41.7963L266.222 48.2812ZM273.834 54.7661C278.75 48.9962 282.33 44.7206 286.138 41.9831C289.353 39.6722 291.898 39.0528 295.179 39.9318L300.355 20.6133C289.947 17.8246 281.307 20.8252 274.465 25.7433C268.216 30.2349 262.868 36.7975 258.61 41.7963L273.834 54.7661ZM295.179 39.9318C298.077 40.7086 300.174 42.6473 302.024 46.8805C304.051 51.517 305.006 57.0958 306.266 63.5557L325.896 59.7259C324.838 54.3025 323.48 46.031 320.351 38.8712C317.045 31.3079 311.144 23.5042 300.355 20.6133L295.179 39.9318ZM306.266 63.5557C307.563 70.2057 308.202 72.6663 308.453 74.9816C308.6 76.3429 308.587 77.3717 307.849 80.1279L327.167 85.3043C328.378 80.7868 328.811 77.2196 328.337 72.8326C327.966 69.3994 326.917 64.9593 325.896 59.7259L306.266 63.5557ZM307.849 80.1279C304.612 92.2067 292.197 99.3748 280.118 96.1383L274.942 115.457C297.69 121.552 321.072 108.052 327.167 85.3043L307.849 80.1279ZM280.118 96.1383C268.039 92.9018 260.871 80.4863 264.108 68.4075L244.789 63.2311C238.694 85.9792 252.194 109.361 274.942 115.457L280.118 96.1383ZM264.108 68.4075C264.962 65.2201 265.223 64.9153 265.705 64.2538C266.184 63.5974 266.903 62.7394 268.316 61.1224C269.656 59.5889 271.487 57.5219 273.834 54.7661L258.61 41.7963C254.586 46.5192 251.379 49.9553 249.547 52.468C246.923 56.065 245.884 59.1448 244.789 63.2311L264.108 68.4075Z" fill="#CDE97C" mask="url(#path-4-inside-2_785_2021)"/>
</g>
<g filter="url(#filter3_i_785_2021)">
<circle cx="65.0513" cy="71.875" r="14.5" transform="rotate(45 65.0513 71.875)" fill="#6E3B00" fill-opacity="0.2"/>
</g>
<g filter="url(#filter4_i_785_2021)">
<circle cx="171.623" cy="114.068" r="16.7629" transform="rotate(75 171.623 114.068)" fill="#6E3B00" fill-opacity="0.2"/>
</g>
<g filter="url(#filter5_i_785_2021)">
<circle cx="286.481" cy="72.3053" r="11.0072" transform="rotate(75 286.481 72.3053)" fill="#6E3B00" fill-opacity="0.2"/>
</g>
<g filter="url(#filter6_i_785_2021)">
<path d="M233.4 89.5426C233.424 89.5253 233.448 89.5081 233.473 89.491C233.502 89.662 233.529 89.8338 233.554 90.0057C233.804 91.7265 233.737 92.9299 233.538 93.5635C233.496 93.6955 233.104 94.3894 231.63 95.3857C231.322 95.5941 231.001 95.7923 230.676 95.9795C230.625 95.7615 230.58 95.5414 230.542 95.3206C230.297 93.8754 230.451 92.8984 230.774 92.2893C231.27 91.3546 232.169 90.4166 233.4 89.5426Z" stroke="#CDE97C" stroke-width="10" stroke-linejoin="round"/>
</g>
<g filter="url(#filter7_i_785_2021)">
<path d="M237.1 110.394C238.133 110.455 238.825 111.387 238.626 112.403C238.24 114.374 237.401 117.47 235.758 119.1C234.013 120.831 230.413 120.811 228.344 120.631C227.428 120.552 226.753 119.791 226.817 118.873C226.953 116.901 227.55 113.571 229.945 111.938C232.188 110.408 235.201 110.282 237.1 110.394Z" fill="#CDE97C"/>
</g>
<defs>
<filter id="filter0_i_785_2021" x="23.1062" y="16.0916" width="85.9684" height="101.828" filterUnits="userSpaceOnUse" color-interpolation-filters="sRGB">
<feFlood flood-opacity="0" result="BackgroundImageFix"/>
<feBlend mode="normal" in="SourceGraphic" in2="BackgroundImageFix" result="shape"/>
<feColorMatrix in="SourceAlpha" type="matrix" values="0 0 0 0 0 0 0 0 0 0 0 0 0 0 0 0 0 0 127 0" result="hardAlpha"/>
<feOffset/>
<feGaussianBlur stdDeviation="2"/>
<feComposite in2="hardAlpha" operator="arithmetic" k2="-1" k3="1"/>
<feColorMatrix type="matrix" values="0 0 0 0 0.446732 0 0 0 0 0.602734 0 0 0 0 0 0 0 0 0.5 0"/>
<feBlend mode="normal" in2="shape" result="effect1_innerShadow_785_2021"/>
</filter>
<filter id="filter1_i_785_2021" x="121.16" y="49.5866" width="99.2889" height="117.827" filterUnits="userSpaceOnUse" color-interpolation-filters="sRGB">
<feFlood flood-opacity="0" result="BackgroundImageFix"/>
<feBlend mode="normal" in="SourceGraphic" in2="BackgroundImageFix" result="shape"/>
<feColorMatrix in="SourceAlpha" type="matrix" values="0 0 0 0 0 0 0 0 0 0 0 0 0 0 0 0 0 0 127 0" result="hardAlpha"/>
<feOffset/>
<feGaussianBlur stdDeviation="2"/>
<feComposite in2="hardAlpha" operator="arithmetic" k2="-1" k3="1"/>
<feColorMatrix type="matrix" values="0 0 0 0 0.446732 0 0 0 0 0.602734 0 0 0 0 0 0 0 0 0.5 0"/>
<feBlend mode="normal" in2="shape" result="effect1_innerShadow_785_2021"/>
</filter>
<filter id="filter2_i_785_2021" x="253.328" y="29.5479" width="65.1973" height="77.3701" filterUnits="userSpaceOnUse" color-interpolation-filters="sRGB">
<feFlood flood-opacity="0" result="BackgroundImageFix"/>
<feBlend mode="normal" in="SourceGraphic" in2="BackgroundImageFix" result="shape"/>
<feColorMatrix in="SourceAlpha" type="matrix" values="0 0 0 0 0 0 0 0 0 0 0 0 0 0 0 0 0 0 127 0" result="hardAlpha"/>
<feOffset/>
<feGaussianBlur stdDeviation="2"/>
<feComposite in2="hardAlpha" operator="arithmetic" k2="-1" k3="1"/>
<feColorMatrix type="matrix" values="0 0 0 0 0.446732 0 0 0 0 0.602734 0 0 0 0 0 0 0 0 0.5 0"/>
<feBlend mode="normal" in2="shape" result="effect1_innerShadow_785_2021"/>
</filter>
<filter id="filter3_i_785_2021" x="50.5513" y="57.375" width="29" height="29" filterUnits="userSpaceOnUse" color-interpolation-filters="sRGB">
<feFlood flood-opacity="0" result="BackgroundImageFix"/>
<feBlend mode="normal" in="SourceGraphic" in2="BackgroundImageFix" result="shape"/>
<feColorMatrix in="SourceAlpha" type="matrix" values="0 0 0 0 0 0 0 0 0 0 0 0 0 0 0 0 0 0 127 0" result="hardAlpha"/>
<feOffset/>
<feGaussianBlur stdDeviation="2"/>
<feComposite in2="hardAlpha" operator="arithmetic" k2="-1" k3="1"/>
<feColorMatrix type="matrix" values="0 0 0 0 0.294401 0 0 0 0 0.157906 0 0 0 0 0 0 0 0 0.5 0"/>
<feBlend mode="normal" in2="shape" result="effect1_innerShadow_785_2021"/>
</filter>
<filter id="filter4_i_785_2021" x="154.856" y="97.3006" width="33.5341" height="33.534" filterUnits="userSpaceOnUse" color-interpolation-filters="sRGB">
<feFlood flood-opacity="0" result="BackgroundImageFix"/>
<feBlend mode="normal" in="SourceGraphic" in2="BackgroundImageFix" result="shape"/>
<feColorMatrix in="SourceAlpha" type="matrix" values="0 0 0 0 0 0 0 0 0 0 0 0 0 0 0 0 0 0 127 0" result="hardAlpha"/>
<feOffset/>
<feGaussianBlur stdDeviation="2"/>
<feComposite in2="hardAlpha" operator="arithmetic" k2="-1" k3="1"/>
<feColorMatrix type="matrix" values="0 0 0 0 0.294401 0 0 0 0 0.157906 0 0 0 0 0 0 0 0 0.5 0"/>
<feBlend mode="normal" in2="shape" result="effect1_innerShadow_785_2021"/>
</filter>
<filter id="filter5_i_785_2021" x="275.471" y="61.2953" width="22.0199" height="22.0199" filterUnits="userSpaceOnUse" color-interpolation-filters="sRGB">
<feFlood flood-opacity="0" result="BackgroundImageFix"/>
<feBlend mode="normal" in="SourceGraphic" in2="BackgroundImageFix" result="shape"/>
<feColorMatrix in="SourceAlpha" type="matrix" values="0 0 0 0 0 0 0 0 0 0 0 0 0 0 0 0 0 0 127 0" result="hardAlpha"/>
<feOffset/>
<feGaussianBlur stdDeviation="2"/>
<feComposite in2="hardAlpha" operator="arithmetic" k2="-1" k3="1"/>
<feColorMatrix type="matrix" values="0 0 0 0 0.294401 0 0 0 0 0.157906 0 0 0 0 0 0 0 0 0.5 0"/>
<feBlend mode="normal" in2="shape" result="effect1_innerShadow_785_2021"/>
</filter>
<filter id="filter6_i_785_2021" x="225.422" y="82.8907" width="13.2946" height="19.3181" filterUnits="userSpaceOnUse" color-interpolation-filters="sRGB">
<feFlood flood-opacity="0" result="BackgroundImageFix"/>
<feBlend mode="normal" in="SourceGraphic" in2="BackgroundImageFix" result="shape"/>
<feColorMatrix in="SourceAlpha" type="matrix" values="0 0 0 0 0 0 0 0 0 0 0 0 0 0 0 0 0 0 127 0" result="hardAlpha"/>
<feOffset/>
<feGaussianBlur stdDeviation="2"/>
<feComposite in2="hardAlpha" operator="arithmetic" k2="-1" k3="1"/>
<feColorMatrix type="matrix" values="0 0 0 0 0.446732 0 0 0 0 0.602734 0 0 0 0 0 0 0 0 0.5 0"/>
<feBlend mode="normal" in2="shape" result="effect1_innerShadow_785_2021"/>
</filter>
<filter id="filter7_i_785_2021" x="226.812" y="110.363" width="11.8481" height="10.3478" filterUnits="userSpaceOnUse" color-interpolation-filters="sRGB">
<feFlood flood-opacity="0" result="BackgroundImageFix"/>
<feBlend mode="normal" in="SourceGraphic" in2="BackgroundImageFix" result="shape"/>
<feColorMatrix in="SourceAlpha" type="matrix" values="0 0 0 0 0 0 0 0 0 0 0 0 0 0 0 0 0 0 127 0" result="hardAlpha"/>
<feOffset/>
<feGaussianBlur stdDeviation="2"/>
<feComposite in2="hardAlpha" operator="arithmetic" k2="-1" k3="1"/>
<feColorMatrix type="matrix" values="0 0 0 0 0.446732 0 0 0 0 0.602734 0 0 0 0 0 0 0 0 0.5 0"/>
<feBlend mode="normal" in2="shape" result="effect1_innerShadow_785_2021"/>
</filter>
</defs>
</svg>
