<svg width="345" height="167" viewBox="0 0 345 167" fill="none" xmlns="http://www.w3.org/2000/svg">
<g filter="url(#filter0_i_528_1625)">
<path d="M39.8248 0L-29 56.0694L95.7114 40.2028L39.8248 0Z" fill="#FFDD87"/>
<path fill-rule="evenodd" clip-rule="evenodd" d="M-28.7114 58.684L96 42.8175L96 77.6201C93.8736 76.0442 91.2446 75.1128 88.399 75.1128C81.3227 75.1128 75.5862 80.8727 75.5862 87.9778C75.5862 90.3604 76.2312 92.5917 77.3555 94.5053L-28.7112 108L-28.7113 100.843L-28.6247 100.843C-21.5484 100.843 -15.8119 95.083 -15.8119 87.9778C-15.8119 80.8727 -21.5484 75.1128 -28.6247 75.1128L-28.7114 75.1131L-28.7114 58.684ZM2.12604 66.9649C2.12604 70.5175 -0.742201 73.3974 -4.28036 73.3974C-7.81852 73.3974 -10.6868 70.5175 -10.6868 66.9649C-10.6868 63.4123 -7.81852 60.5324 -4.28036 60.5324C-0.742201 60.5324 2.12604 63.4123 2.12604 66.9649ZM64.0546 69.9668C68.5363 69.9668 72.1694 66.3188 72.1694 61.8189C72.1694 57.319 68.5363 53.671 64.0546 53.671C59.573 53.671 55.9398 57.319 55.9398 61.8189C55.9398 66.3188 59.573 69.9668 64.0546 69.9668ZM45.6896 80.2588C45.6896 85.9429 41.1004 90.5508 35.4393 90.5508C29.7783 90.5508 25.1891 85.9429 25.1891 80.2588C25.1891 74.5747 29.7783 69.9668 35.4393 69.9668C41.1004 69.9668 45.6896 74.5747 45.6896 80.2588Z" fill="#FFDD87"/>
</g>
<g filter="url(#filter1_i_528_1625)">
<path d="M166.175 59L235 115.069L110.289 99.2028L166.175 59Z" fill="#FFDD87"/>
<path fill-rule="evenodd" clip-rule="evenodd" d="M234.711 117.684L110 101.818L110 136.62C112.126 135.044 114.755 134.113 117.601 134.113C124.677 134.113 130.414 139.873 130.414 146.978C130.414 149.36 129.769 151.592 128.644 153.505L234.711 167L234.711 159.843L234.625 159.843C227.548 159.843 221.812 154.083 221.812 146.978C221.812 139.873 227.548 134.113 234.625 134.113L234.711 134.113L234.711 117.684ZM203.874 125.965C203.874 129.518 206.742 132.397 210.28 132.397C213.819 132.397 216.687 129.518 216.687 125.965C216.687 122.412 213.819 119.532 210.28 119.532C206.742 119.532 203.874 122.412 203.874 125.965ZM141.945 128.967C137.464 128.967 133.831 125.319 133.831 120.819C133.831 116.319 137.464 112.671 141.945 112.671C146.427 112.671 150.06 116.319 150.06 120.819C150.06 125.319 146.427 128.967 141.945 128.967ZM160.31 139.259C160.31 144.943 164.9 149.551 170.561 149.551C176.222 149.551 180.811 144.943 180.811 139.259C180.811 133.575 176.222 128.967 170.561 128.967C164.9 128.967 160.31 133.575 160.31 139.259Z" fill="#FFDD87"/>
</g>
<g filter="url(#filter2_i_528_1625)">
<path d="M339.61 30L284 75.167L384.767 62.3856L339.61 30Z" fill="#FFDD87"/>
<path fill-rule="evenodd" clip-rule="evenodd" d="M284.233 77.2733L385 64.4919L385 92.5273C383.282 91.2579 381.158 90.5075 378.858 90.5075C373.141 90.5075 368.506 95.1474 368.506 100.871C368.506 102.79 369.027 104.588 369.935 106.129L284.233 117L284.233 111.234L284.303 111.235C290.021 111.235 294.656 106.595 294.656 100.871C294.656 95.1474 290.021 90.5075 284.303 90.5075L284.233 90.5078L284.233 77.2733ZM309.15 83.944C309.15 86.8058 306.832 89.1257 303.973 89.1257C301.115 89.1257 298.797 86.8058 298.797 83.944C298.797 81.0822 301.115 78.7622 303.973 78.7622C306.832 78.7622 309.15 81.0822 309.15 83.944ZM359.188 86.3621C362.809 86.3621 365.745 83.4235 365.745 79.7986C365.745 76.1736 362.809 73.235 359.188 73.235C355.567 73.235 352.631 76.1736 352.631 79.7986C352.631 83.4235 355.567 86.3621 359.188 86.3621ZM344.349 94.6529C344.349 99.2318 340.641 102.944 336.067 102.944C331.493 102.944 327.785 99.2318 327.785 94.6529C327.785 90.074 331.493 86.3621 336.067 86.3621C340.641 86.3621 344.349 90.074 344.349 94.6529Z" fill="#FFDD87"/>
</g>
<g filter="url(#filter3_i_528_1625)">
<circle cx="232.5" cy="81.5" r="7.5" fill="#FFDD87"/>
</g>
<g filter="url(#filter4_i_528_1625)">
<circle cx="247.5" cy="93.5" r="4.5" fill="#FFDD87"/>
</g>
<defs>
<filter id="filter0_i_528_1625" x="-29" y="0" width="125" height="108" filterUnits="userSpaceOnUse" color-interpolation-filters="sRGB">
<feFlood flood-opacity="0" result="BackgroundImageFix"/>
<feBlend mode="normal" in="SourceGraphic" in2="BackgroundImageFix" result="shape"/>
<feColorMatrix in="SourceAlpha" type="matrix" values="0 0 0 0 0 0 0 0 0 0 0 0 0 0 0 0 0 0 127 0" result="hardAlpha"/>
<feOffset/>
<feGaussianBlur stdDeviation="2"/>
<feComposite in2="hardAlpha" operator="arithmetic" k2="-1" k3="1"/>
<feColorMatrix type="matrix" values="0 0 0 0 0.847059 0 0 0 0 0.509804 0 0 0 0 0 0 0 0 0.25 0"/>
<feBlend mode="normal" in2="shape" result="effect1_innerShadow_528_1625"/>
</filter>
<filter id="filter1_i_528_1625" x="110" y="59" width="125" height="108" filterUnits="userSpaceOnUse" color-interpolation-filters="sRGB">
<feFlood flood-opacity="0" result="BackgroundImageFix"/>
<feBlend mode="normal" in="SourceGraphic" in2="BackgroundImageFix" result="shape"/>
<feColorMatrix in="SourceAlpha" type="matrix" values="0 0 0 0 0 0 0 0 0 0 0 0 0 0 0 0 0 0 127 0" result="hardAlpha"/>
<feOffset/>
<feGaussianBlur stdDeviation="2"/>
<feComposite in2="hardAlpha" operator="arithmetic" k2="-1" k3="1"/>
<feColorMatrix type="matrix" values="0 0 0 0 0.847059 0 0 0 0 0.509804 0 0 0 0 0 0 0 0 0.25 0"/>
<feBlend mode="normal" in2="shape" result="effect1_innerShadow_528_1625"/>
</filter>
<filter id="filter2_i_528_1625" x="284" y="30" width="101" height="87" filterUnits="userSpaceOnUse" color-interpolation-filters="sRGB">
<feFlood flood-opacity="0" result="BackgroundImageFix"/>
<feBlend mode="normal" in="SourceGraphic" in2="BackgroundImageFix" result="shape"/>
<feColorMatrix in="SourceAlpha" type="matrix" values="0 0 0 0 0 0 0 0 0 0 0 0 0 0 0 0 0 0 127 0" result="hardAlpha"/>
<feOffset/>
<feGaussianBlur stdDeviation="2"/>
<feComposite in2="hardAlpha" operator="arithmetic" k2="-1" k3="1"/>
<feColorMatrix type="matrix" values="0 0 0 0 0.847059 0 0 0 0 0.509804 0 0 0 0 0 0 0 0 0.25 0"/>
<feBlend mode="normal" in2="shape" result="effect1_innerShadow_528_1625"/>
</filter>
<filter id="filter3_i_528_1625" x="225" y="74" width="15" height="15" filterUnits="userSpaceOnUse" color-interpolation-filters="sRGB">
<feFlood flood-opacity="0" result="BackgroundImageFix"/>
<feBlend mode="normal" in="SourceGraphic" in2="BackgroundImageFix" result="shape"/>
<feColorMatrix in="SourceAlpha" type="matrix" values="0 0 0 0 0 0 0 0 0 0 0 0 0 0 0 0 0 0 127 0" result="hardAlpha"/>
<feOffset/>
<feGaussianBlur stdDeviation="2"/>
<feComposite in2="hardAlpha" operator="arithmetic" k2="-1" k3="1"/>
<feColorMatrix type="matrix" values="0 0 0 0 0.847059 0 0 0 0 0.509804 0 0 0 0 0 0 0 0 0.25 0"/>
<feBlend mode="normal" in2="shape" result="effect1_innerShadow_528_1625"/>
</filter>
<filter id="filter4_i_528_1625" x="243" y="89" width="9" height="9" filterUnits="userSpaceOnUse" color-interpolation-filters="sRGB">
<feFlood flood-opacity="0" result="BackgroundImageFix"/>
<feBlend mode="normal" in="SourceGraphic" in2="BackgroundImageFix" result="shape"/>
<feColorMatrix in="SourceAlpha" type="matrix" values="0 0 0 0 0 0 0 0 0 0 0 0 0 0 0 0 0 0 127 0" result="hardAlpha"/>
<feOffset/>
<feGaussianBlur stdDeviation="2"/>
<feComposite in2="hardAlpha" operator="arithmetic" k2="-1" k3="1"/>
<feColorMatrix type="matrix" values="0 0 0 0 0.847059 0 0 0 0 0.509804 0 0 0 0 0 0 0 0 0.25 0"/>
<feBlend mode="normal" in2="shape" result="effect1_innerShadow_528_1625"/>
</filter>
</defs>
</svg>
