<svg width="100%" height="100%" viewBox="0 0 345 190" fill="none" xmlns="http://www.w3.org/2000/svg">
<g clip-path="url(#clip0_785_1912)">
<g filter="url(#filter0_i_785_1912)">
<path d="M25.8248 0L-43 56.0694L81.7114 40.2028L25.8248 0Z" fill="#FFDD87"/>
<path fill-rule="evenodd" clip-rule="evenodd" d="M-42.7114 58.684L82 42.8175L82 77.6201C79.8736 76.0442 77.2446 75.1128 74.399 75.1128C67.3227 75.1128 61.5862 80.8727 61.5862 87.9778C61.5862 90.3604 62.2312 92.5917 63.3555 94.5053L-42.7112 108L-42.7113 100.843L-42.6247 100.843C-35.5484 100.843 -29.8119 95.083 -29.8119 87.9778C-29.8119 80.8727 -35.5484 75.1128 -42.6247 75.1128L-42.7114 75.1131L-42.7114 58.684ZM-11.874 66.9649C-11.874 70.5175 -14.7422 73.3974 -18.2804 73.3974C-21.8185 73.3974 -24.6868 70.5175 -24.6868 66.9649C-24.6868 63.4123 -21.8185 60.5324 -18.2804 60.5324C-14.7422 60.5324 -11.874 63.4123 -11.874 66.9649ZM50.0546 69.9668C54.5363 69.9668 58.1694 66.3188 58.1694 61.8189C58.1694 57.319 54.5363 53.671 50.0546 53.671C45.573 53.671 41.9398 57.319 41.9398 61.8189C41.9398 66.3188 45.573 69.9668 50.0546 69.9668ZM31.6896 80.2588C31.6896 85.9429 27.1004 90.5508 21.4393 90.5508C15.7783 90.5508 11.1891 85.9429 11.1891 80.2588C11.1891 74.5747 15.7783 69.9668 21.4393 69.9668C27.1004 69.9668 31.6896 74.5747 31.6896 80.2588Z" fill="#FFDD87"/>
</g>
<g filter="url(#filter1_i_785_1912)">
<path d="M152.175 59L221 115.069L96.2886 99.2028L152.175 59Z" fill="#FFDD87"/>
<path fill-rule="evenodd" clip-rule="evenodd" d="M220.711 117.684L96 101.818L96 136.62C98.1264 135.044 100.755 134.113 103.601 134.113C110.677 134.113 116.414 139.873 116.414 146.978C116.414 149.36 115.769 151.592 114.644 153.505L220.711 167L220.711 159.843L220.625 159.843C213.548 159.843 207.812 154.083 207.812 146.978C207.812 139.873 213.548 134.113 220.625 134.113L220.711 134.113L220.711 117.684ZM189.874 125.965C189.874 129.518 192.742 132.397 196.28 132.397C199.819 132.397 202.687 129.518 202.687 125.965C202.687 122.412 199.819 119.532 196.28 119.532C192.742 119.532 189.874 122.412 189.874 125.965ZM127.945 128.967C123.464 128.967 119.831 125.319 119.831 120.819C119.831 116.319 123.464 112.671 127.945 112.671C132.427 112.671 136.06 116.319 136.06 120.819C136.06 125.319 132.427 128.967 127.945 128.967ZM146.31 139.259C146.31 144.943 150.9 149.551 156.561 149.551C162.222 149.551 166.811 144.943 166.811 139.259C166.811 133.575 162.222 128.967 156.561 128.967C150.9 128.967 146.31 133.575 146.31 139.259Z" fill="#FFDD87"/>
</g>
<g filter="url(#filter2_i_785_1912)">
<path d="M325.61 30L270 75.167L370.767 62.3856L325.61 30Z" fill="#FFDD87"/>
<path fill-rule="evenodd" clip-rule="evenodd" d="M270.233 77.2733L371 64.4919L371 92.5273C369.282 91.2579 367.158 90.5075 364.858 90.5075C359.141 90.5075 354.506 95.1474 354.506 100.871C354.506 102.79 355.027 104.588 355.935 106.129L270.233 117L270.233 111.234L270.303 111.235C276.021 111.235 280.656 106.595 280.656 100.871C280.656 95.1474 276.021 90.5075 270.303 90.5075L270.233 90.5078L270.233 77.2733ZM295.15 83.944C295.15 86.8058 292.832 89.1257 289.973 89.1257C287.115 89.1257 284.797 86.8058 284.797 83.944C284.797 81.0822 287.115 78.7622 289.973 78.7622C292.832 78.7622 295.15 81.0822 295.15 83.944ZM345.188 86.3621C348.809 86.3621 351.745 83.4235 351.745 79.7986C351.745 76.1736 348.809 73.235 345.188 73.235C341.567 73.235 338.631 76.1736 338.631 79.7986C338.631 83.4235 341.567 86.3621 345.188 86.3621ZM330.349 94.6529C330.349 99.2318 326.641 102.944 322.067 102.944C317.493 102.944 313.785 99.2318 313.785 94.6529C313.785 90.074 317.493 86.3621 322.067 86.3621C326.641 86.3621 330.349 90.074 330.349 94.6529Z" fill="#FFDD87"/>
</g>
<g filter="url(#filter3_i_785_1912)">
<circle cx="218.5" cy="81.5" r="7.5" fill="#FFDD87"/>
</g>
<g filter="url(#filter4_i_785_1912)">
<circle cx="233.5" cy="93.5" r="4.5" fill="#FFDD87"/>
</g>
</g>
<defs>
<filter id="filter0_i_785_1912" x="-43" y="0" width="125" height="108" filterUnits="userSpaceOnUse" color-interpolation-filters="sRGB">
<feFlood flood-opacity="0" result="BackgroundImageFix"/>
<feBlend mode="normal" in="SourceGraphic" in2="BackgroundImageFix" result="shape"/>
<feColorMatrix in="SourceAlpha" type="matrix" values="0 0 0 0 0 0 0 0 0 0 0 0 0 0 0 0 0 0 127 0" result="hardAlpha"/>
<feOffset/>
<feGaussianBlur stdDeviation="2"/>
<feComposite in2="hardAlpha" operator="arithmetic" k2="-1" k3="1"/>
<feColorMatrix type="matrix" values="0 0 0 0 0.847059 0 0 0 0 0.509804 0 0 0 0 0 0 0 0 0.25 0"/>
<feBlend mode="normal" in2="shape" result="effect1_innerShadow_785_1912"/>
</filter>
<filter id="filter1_i_785_1912" x="96" y="59" width="125" height="108" filterUnits="userSpaceOnUse" color-interpolation-filters="sRGB">
<feFlood flood-opacity="0" result="BackgroundImageFix"/>
<feBlend mode="normal" in="SourceGraphic" in2="BackgroundImageFix" result="shape"/>
<feColorMatrix in="SourceAlpha" type="matrix" values="0 0 0 0 0 0 0 0 0 0 0 0 0 0 0 0 0 0 127 0" result="hardAlpha"/>
<feOffset/>
<feGaussianBlur stdDeviation="2"/>
<feComposite in2="hardAlpha" operator="arithmetic" k2="-1" k3="1"/>
<feColorMatrix type="matrix" values="0 0 0 0 0.847059 0 0 0 0 0.509804 0 0 0 0 0 0 0 0 0.25 0"/>
<feBlend mode="normal" in2="shape" result="effect1_innerShadow_785_1912"/>
</filter>
<filter id="filter2_i_785_1912" x="270" y="30" width="101" height="87" filterUnits="userSpaceOnUse" color-interpolation-filters="sRGB">
<feFlood flood-opacity="0" result="BackgroundImageFix"/>
<feBlend mode="normal" in="SourceGraphic" in2="BackgroundImageFix" result="shape"/>
<feColorMatrix in="SourceAlpha" type="matrix" values="0 0 0 0 0 0 0 0 0 0 0 0 0 0 0 0 0 0 127 0" result="hardAlpha"/>
<feOffset/>
<feGaussianBlur stdDeviation="2"/>
<feComposite in2="hardAlpha" operator="arithmetic" k2="-1" k3="1"/>
<feColorMatrix type="matrix" values="0 0 0 0 0.847059 0 0 0 0 0.509804 0 0 0 0 0 0 0 0 0.25 0"/>
<feBlend mode="normal" in2="shape" result="effect1_innerShadow_785_1912"/>
</filter>
<filter id="filter3_i_785_1912" x="211" y="74" width="15" height="15" filterUnits="userSpaceOnUse" color-interpolation-filters="sRGB">
<feFlood flood-opacity="0" result="BackgroundImageFix"/>
<feBlend mode="normal" in="SourceGraphic" in2="BackgroundImageFix" result="shape"/>
<feColorMatrix in="SourceAlpha" type="matrix" values="0 0 0 0 0 0 0 0 0 0 0 0 0 0 0 0 0 0 127 0" result="hardAlpha"/>
<feOffset/>
<feGaussianBlur stdDeviation="2"/>
<feComposite in2="hardAlpha" operator="arithmetic" k2="-1" k3="1"/>
<feColorMatrix type="matrix" values="0 0 0 0 0.847059 0 0 0 0 0.509804 0 0 0 0 0 0 0 0 0.25 0"/>
<feBlend mode="normal" in2="shape" result="effect1_innerShadow_785_1912"/>
</filter>
<filter id="filter4_i_785_1912" x="229" y="89" width="9" height="9" filterUnits="userSpaceOnUse" color-interpolation-filters="sRGB">
<feFlood flood-opacity="0" result="BackgroundImageFix"/>
<feBlend mode="normal" in="SourceGraphic" in2="BackgroundImageFix" result="shape"/>
<feColorMatrix in="SourceAlpha" type="matrix" values="0 0 0 0 0 0 0 0 0 0 0 0 0 0 0 0 0 0 127 0" result="hardAlpha"/>
<feOffset/>
<feGaussianBlur stdDeviation="2"/>
<feComposite in2="hardAlpha" operator="arithmetic" k2="-1" k3="1"/>
<feColorMatrix type="matrix" values="0 0 0 0 0.847059 0 0 0 0 0.509804 0 0 0 0 0 0 0 0 0.25 0"/>
<feBlend mode="normal" in2="shape" result="effect1_innerShadow_785_1912"/>
</filter>
<clipPath id="clip0_785_1912">
<rect width="345" height="190" fill="white"/>
</clipPath>
</defs>
</svg>
