<svg width="345" height="174" viewBox="0 0 345 174" fill="none" xmlns="http://www.w3.org/2000/svg">
<g filter="url(#filter0_i_528_1975)">
<path d="M57.6119 14.1855C40.8606 9.69706 23.6842 19.762 19.1843 36.5561C18.7159 38.3041 18.4025 40.0601 18.2365 41.8085C5.62475 43.1035 -5.46816 52.0634 -8.95693 65.0836C-13.4569 81.8777 -3.61422 99.1824 13.137 103.671C20.4881 105.641 27.9372 104.802 34.3473 101.824C38.4096 107.608 44.4414 112.059 51.7924 114.029C68.5437 118.517 85.72 108.452 90.22 91.658C93.7474 78.4935 88.4674 65.036 77.9626 57.6587C78.6653 56.1026 79.2508 54.471 79.7058 52.7728C84.2058 35.9787 74.3631 18.674 57.6119 14.1855Z" stroke="#248C00" stroke-width="10" stroke-linejoin="round"/>
</g>
<g filter="url(#filter1_i_528_1975)">
<path d="M161.554 68.1733C144.492 71.1872 133.158 87.5198 136.177 104.609C136.49 106.38 136.945 108.093 137.531 109.738C126.656 116.229 120.38 129.002 122.72 142.246C125.739 159.335 141.982 170.797 159.044 167.783C166.536 166.459 172.934 162.558 177.487 157.159C183.613 160.671 190.96 162.145 198.453 160.821C215.515 157.807 226.849 141.475 223.83 124.386C221.465 110.995 210.989 101.073 198.362 98.8425C198.341 97.1456 198.182 95.4302 197.878 93.7097C194.86 76.6208 178.617 65.1593 161.554 68.1733Z" stroke="#248C00" stroke-width="10" stroke-linejoin="round"/>
</g>
<g filter="url(#filter2_i_528_1975)">
<path d="M339.638 29.3791C351.901 41.6419 351.773 61.5495 339.479 73.8437C338.199 75.1233 336.835 76.2727 335.404 77.2906C340.588 88.8603 338.375 102.947 328.844 112.478C316.549 124.773 296.642 124.901 284.379 112.638C278.998 107.257 276 100.386 275.374 93.3459C268.333 92.72 261.463 89.7218 256.081 84.3404C243.819 72.0777 243.947 52.17 256.241 39.8759C265.878 30.2388 280.173 28.0827 291.814 33.4915C292.81 32.1048 293.931 30.782 295.174 29.5388C307.468 17.2447 327.375 17.1164 339.638 29.3791Z" stroke="#248C00" stroke-width="10" stroke-linejoin="round"/>
</g>
<defs>
<filter id="filter0_i_528_1975" x="-15.0467" y="8.11444" width="111.358" height="111.985" filterUnits="userSpaceOnUse" color-interpolation-filters="sRGB">
<feFlood flood-opacity="0" result="BackgroundImageFix"/>
<feBlend mode="normal" in="SourceGraphic" in2="BackgroundImageFix" result="shape"/>
<feColorMatrix in="SourceAlpha" type="matrix" values="0 0 0 0 0 0 0 0 0 0 0 0 0 0 0 0 0 0 127 0" result="hardAlpha"/>
<feOffset/>
<feGaussianBlur stdDeviation="2"/>
<feComposite in2="hardAlpha" operator="arithmetic" k2="-1" k3="1"/>
<feColorMatrix type="matrix" values="0 0 0 0 0.0588235 0 0 0 0 0.227451 0 0 0 0 0 0 0 0 0.5 0"/>
<feBlend mode="normal" in2="shape" result="effect1_innerShadow_528_1975"/>
</filter>
<filter id="filter1_i_528_1975" x="117.232" y="62.6909" width="112.085" height="110.574" filterUnits="userSpaceOnUse" color-interpolation-filters="sRGB">
<feFlood flood-opacity="0" result="BackgroundImageFix"/>
<feBlend mode="normal" in="SourceGraphic" in2="BackgroundImageFix" result="shape"/>
<feColorMatrix in="SourceAlpha" type="matrix" values="0 0 0 0 0 0 0 0 0 0 0 0 0 0 0 0 0 0 127 0" result="hardAlpha"/>
<feOffset/>
<feGaussianBlur stdDeviation="2"/>
<feComposite in2="hardAlpha" operator="arithmetic" k2="-1" k3="1"/>
<feColorMatrix type="matrix" values="0 0 0 0 0.0588235 0 0 0 0 0.227451 0 0 0 0 0 0 0 0 0.5 0"/>
<feBlend mode="normal" in2="shape" result="effect1_innerShadow_528_1975"/>
</filter>
<filter id="filter2_i_528_1975" x="241.952" y="15.2498" width="111.816" height="111.518" filterUnits="userSpaceOnUse" color-interpolation-filters="sRGB">
<feFlood flood-opacity="0" result="BackgroundImageFix"/>
<feBlend mode="normal" in="SourceGraphic" in2="BackgroundImageFix" result="shape"/>
<feColorMatrix in="SourceAlpha" type="matrix" values="0 0 0 0 0 0 0 0 0 0 0 0 0 0 0 0 0 0 127 0" result="hardAlpha"/>
<feOffset/>
<feGaussianBlur stdDeviation="2"/>
<feComposite in2="hardAlpha" operator="arithmetic" k2="-1" k3="1"/>
<feColorMatrix type="matrix" values="0 0 0 0 0.0588235 0 0 0 0 0.227451 0 0 0 0 0 0 0 0 0.5 0"/>
<feBlend mode="normal" in2="shape" result="effect1_innerShadow_528_1975"/>
</filter>
</defs>
</svg>
