<svg width="100%" height="100%" viewBox="0 0 345 190" fill="none" xmlns="http://www.w3.org/2000/svg">
<g clip-path="url(#clip0_785_2196)">
<g filter="url(#filter0_i_785_2196)">
<path d="M51.6119 14.1856C34.8606 9.69709 17.6843 19.762 13.1843 36.5561C12.716 38.3041 12.4025 40.0601 12.2366 41.8085C-0.37519 43.1036 -11.4681 52.0634 -14.9569 65.0837C-19.4568 81.8778 -9.61416 99.1824 7.13711 103.671C14.4881 105.641 21.9372 104.802 28.3474 101.824C32.4097 107.608 38.4414 112.059 45.7925 114.029C62.5437 118.517 79.7201 108.452 84.22 91.658C87.7475 78.4935 82.4674 65.036 71.9626 57.6587C72.6654 56.1026 73.2509 54.471 73.7059 52.7728C78.2059 35.9787 68.3632 18.6741 51.6119 14.1856Z" stroke="#248C00" stroke-width="10" stroke-linejoin="round"/>
</g>
<g filter="url(#filter1_i_785_2196)">
<path d="M155.554 68.1733C138.492 71.1872 127.158 87.5198 130.177 104.609C130.49 106.38 130.945 108.093 131.531 109.738C120.656 116.229 114.38 129.002 116.72 142.246C119.739 159.335 135.982 170.797 153.044 167.783C160.536 166.459 166.934 162.558 171.487 157.159C177.613 160.671 184.96 162.145 192.453 160.821C209.515 157.807 220.849 141.475 217.83 124.386C215.465 110.995 204.989 101.073 192.362 98.8425C192.341 97.1456 192.182 95.4302 191.878 93.7097C188.86 76.6208 172.617 65.1594 155.554 68.1733Z" stroke="#248C00" stroke-width="10" stroke-linejoin="round"/>
</g>
<g filter="url(#filter2_i_785_2196)">
<path d="M333.638 29.3791C345.901 41.6419 345.773 61.5495 333.479 73.8437C332.199 75.1233 330.835 76.2727 329.404 77.2906C334.588 88.8603 332.375 102.947 322.844 112.478C310.549 124.773 290.642 124.901 278.379 112.638C272.998 107.257 270 100.386 269.374 93.3459C262.333 92.72 255.463 89.7218 250.081 84.3404C237.819 72.0777 237.947 52.17 250.241 39.8759C259.878 30.2388 274.173 28.0827 285.814 33.4915C286.81 32.1048 287.931 30.782 289.174 29.5388C301.468 17.2447 321.375 17.1164 333.638 29.3791Z" stroke="#248C00" stroke-width="10" stroke-linejoin="round"/>
</g>
</g>
<defs>
<filter id="filter0_i_785_2196" x="-21.0466" y="8.11447" width="111.358" height="111.985" filterUnits="userSpaceOnUse" color-interpolation-filters="sRGB">
<feFlood flood-opacity="0" result="BackgroundImageFix"/>
<feBlend mode="normal" in="SourceGraphic" in2="BackgroundImageFix" result="shape"/>
<feColorMatrix in="SourceAlpha" type="matrix" values="0 0 0 0 0 0 0 0 0 0 0 0 0 0 0 0 0 0 127 0" result="hardAlpha"/>
<feOffset/>
<feGaussianBlur stdDeviation="2"/>
<feComposite in2="hardAlpha" operator="arithmetic" k2="-1" k3="1"/>
<feColorMatrix type="matrix" values="0 0 0 0 0.0588235 0 0 0 0 0.227451 0 0 0 0 0 0 0 0 0.5 0"/>
<feBlend mode="normal" in2="shape" result="effect1_innerShadow_785_2196"/>
</filter>
<filter id="filter1_i_785_2196" x="111.232" y="62.691" width="112.085" height="110.574" filterUnits="userSpaceOnUse" color-interpolation-filters="sRGB">
<feFlood flood-opacity="0" result="BackgroundImageFix"/>
<feBlend mode="normal" in="SourceGraphic" in2="BackgroundImageFix" result="shape"/>
<feColorMatrix in="SourceAlpha" type="matrix" values="0 0 0 0 0 0 0 0 0 0 0 0 0 0 0 0 0 0 127 0" result="hardAlpha"/>
<feOffset/>
<feGaussianBlur stdDeviation="2"/>
<feComposite in2="hardAlpha" operator="arithmetic" k2="-1" k3="1"/>
<feColorMatrix type="matrix" values="0 0 0 0 0.0588235 0 0 0 0 0.227451 0 0 0 0 0 0 0 0 0.5 0"/>
<feBlend mode="normal" in2="shape" result="effect1_innerShadow_785_2196"/>
</filter>
<filter id="filter2_i_785_2196" x="235.952" y="15.2498" width="111.816" height="111.518" filterUnits="userSpaceOnUse" color-interpolation-filters="sRGB">
<feFlood flood-opacity="0" result="BackgroundImageFix"/>
<feBlend mode="normal" in="SourceGraphic" in2="BackgroundImageFix" result="shape"/>
<feColorMatrix in="SourceAlpha" type="matrix" values="0 0 0 0 0 0 0 0 0 0 0 0 0 0 0 0 0 0 127 0" result="hardAlpha"/>
<feOffset/>
<feGaussianBlur stdDeviation="2"/>
<feComposite in2="hardAlpha" operator="arithmetic" k2="-1" k3="1"/>
<feColorMatrix type="matrix" values="0 0 0 0 0.0588235 0 0 0 0 0.227451 0 0 0 0 0 0 0 0 0.5 0"/>
<feBlend mode="normal" in2="shape" result="effect1_innerShadow_785_2196"/>
</filter>
<clipPath id="clip0_785_2196">
<rect width="345" height="190" fill="white"/>
</clipPath>
</defs>
</svg>
