<svg width="100%" height="100%" viewBox="0 0 345 190" fill="none" xmlns="http://www.w3.org/2000/svg">
<g clip-path="url(#clip0_785_1634)">
<g filter="url(#filter0_i_785_1634)">
<path fill-rule="evenodd" clip-rule="evenodd" d="M163.654 24.3457C169.9 27.6224 174.484 33.9225 177.531 40.6474C179.379 44.7255 180.658 48.175 181.543 51.016C184.177 48.582 187.39 45.8051 190.704 43.4048C191.163 43.0723 191.678 42.6898 192.237 42.2753C193.794 41.1203 195.686 39.717 197.618 38.4557C200.283 36.7157 203.473 34.931 206.92 33.9696C210.438 32.9882 214.471 32.8032 218.462 34.6287C222.415 36.4362 225.622 39.8937 228.163 44.8061C233.552 55.2211 231.589 66.4639 227.707 75.8521C223.805 85.2887 217.617 93.7393 213.114 99.3329C208.399 105.19 200.834 112.493 192.059 118.557C186.388 122.475 179.992 126.03 173.354 128.271C181.215 134.267 188.96 138.31 200.734 137.448C204.835 137.147 209.703 135.275 215.379 132.211C219.956 129.741 224.662 126.725 229.58 123.573C230.724 122.84 231.881 122.099 233.049 121.356C239.107 117.504 245.474 113.614 251.717 110.96C257.926 108.322 264.611 106.64 271.158 107.896C274.983 108.629 278.102 110.422 280.328 113.247C282.471 115.966 283.476 119.25 283.906 122.492C284.745 128.816 283.566 136.587 282.246 143.904C281.933 145.633 281.61 147.351 281.291 149.05C280.195 154.878 279.138 160.496 278.686 165.695C278.088 172.575 278.731 177.229 280.576 179.923C281.745 181.629 282.637 181.783 283.55 181.709C285.029 181.589 287.342 180.639 290.576 178.248C296.967 173.524 304.396 165.163 312.193 156.207C312.652 155.679 313.113 155.149 313.575 154.618C320.681 146.444 328.061 137.955 334.515 132.84C337.862 130.188 341.777 127.755 345.846 127.413C348.056 127.228 350.317 127.661 352.374 128.958C354.37 130.216 355.824 132.066 356.889 134.148C358.147 136.606 357.174 139.619 354.716 140.877C352.258 142.135 349.245 141.162 347.987 138.703C347.49 137.732 347.114 137.462 347.041 137.416C347.04 137.416 347.039 137.415 347.037 137.414C347.021 137.401 346.961 137.355 346.682 137.378C345.728 137.458 343.796 138.245 340.726 140.678C335.032 145.19 328.217 153.023 320.784 161.568C320.436 161.968 320.086 162.369 319.736 162.772C312.166 171.469 303.976 180.778 296.521 186.289C292.831 189.017 288.665 191.326 284.36 191.676C279.489 192.073 275.295 189.908 272.326 185.574C268.361 179.785 268.102 171.987 268.724 164.829C269.223 159.084 270.408 152.792 271.52 146.886C271.826 145.264 272.126 143.672 272.405 142.127C273.761 134.613 274.595 128.346 273.993 123.807C273.703 121.618 273.125 120.263 272.473 119.436C271.904 118.713 271.017 118.051 269.275 117.717C265.562 117.005 261.066 117.853 255.629 120.164C250.226 122.46 244.481 125.937 238.415 129.795C237.324 130.488 236.221 131.195 235.11 131.908C230.174 135.072 225.07 138.344 220.129 141.011C214.11 144.26 207.723 146.962 201.465 147.421C182.74 148.793 171.506 139.913 161.36 131.466C160.179 131.97 158.683 132.571 156.927 133.204C152.386 134.84 146.02 136.718 138.781 137.632C124.33 139.456 105.655 137.481 91.6792 121.165C78.063 105.268 75.6437 84.5771 74.2133 68.5604C74.1092 67.3947 74.0108 66.26 73.9151 65.1564C73.3273 58.3758 72.8414 52.7709 71.7527 48.3847C70.4758 43.2407 68.8584 41.7803 67.2542 41.3337C66.6359 41.1616 66.0957 41.1929 65.2122 41.8184C64.1286 42.5855 62.7862 44.1194 61.2587 46.7145C58.2053 51.9017 55.4002 59.5595 52.3879 68.2357C52.0531 69.1998 51.7163 70.1751 51.3768 71.1579C48.7449 78.7778 45.9574 86.8483 42.8064 93.6298C41.018 97.4788 39.0274 101.106 36.7535 104.115C34.4994 107.098 31.7446 109.771 28.3308 111.284C25.6926 112.453 22.8333 112.963 19.996 112.179C17.1457 111.392 15.0956 109.515 13.6659 107.437C10.9923 103.551 9.71492 97.8266 8.92924 92.1742C8.11352 86.3057 7.71639 79.5021 7.34826 72.8521C7.32869 72.4985 7.3092 72.1454 7.28974 71.7927C6.93774 65.4149 6.59428 59.1917 5.94304 53.6726C5.2418 47.7299 4.24407 43.2371 2.86003 40.4696C2.19149 39.1328 1.60866 38.5642 1.2737 38.3423C1.0637 38.2032 0.787272 38.0694 0.107865 38.1725C-1.77093 38.4578 -5.51925 40.4031 -11.6759 46.7659C-17.6225 52.9116 -25.1563 62.4676 -34.6676 76.4406C-36.2215 78.7234 -39.3316 79.3143 -41.6144 77.7604C-43.8972 76.2065 -44.4881 73.0963 -42.9342 70.8136C-33.2885 56.6432 -25.3849 46.5532 -18.8625 39.8123C-12.5502 33.2886 -6.79795 29.1065 -1.39341 28.2859C1.56885 27.8361 4.37978 28.4046 6.79673 30.0059C9.08872 31.5243 10.6724 33.7342 11.8039 35.9967C14.0199 40.4278 15.1562 46.4167 15.8741 52.5008C16.5634 58.3421 16.9227 64.8584 17.2688 71.1373C17.2902 71.5256 17.3116 71.913 17.333 72.2993C17.7055 79.0283 18.0853 85.4109 18.834 90.7975C19.6128 96.4002 20.6874 100 21.9044 101.769C22.1644 102.147 22.3689 102.344 22.4904 102.44C22.599 102.526 22.6491 102.538 22.6582 102.54C22.6687 102.543 22.7635 102.57 22.9997 102.541C23.2512 102.51 23.6693 102.412 24.2788 102.142C25.5574 101.575 27.0747 100.336 28.7753 98.086C30.4563 95.8616 32.1031 92.9336 33.7375 89.416C36.6561 83.1348 39.2635 75.591 41.9258 67.8887C42.2631 66.9128 42.6013 65.9345 42.9411 64.9558C45.8805 56.4896 48.9914 47.8416 52.6408 41.6417C54.4647 38.5433 56.6703 35.6133 59.4342 33.6566C62.3982 31.5583 66.005 30.6057 69.936 31.7C77.0002 33.6665 79.9626 39.9508 81.4581 45.9756C82.7537 51.195 83.3153 57.7283 83.8893 64.4051C83.9826 65.4916 84.0764 66.5819 84.1736 67.6709C85.6206 83.8728 87.9738 101.467 99.2741 114.659C110.215 127.433 124.873 129.308 137.528 127.71C143.516 126.954 148.889 125.429 152.896 124.024C145.909 117.22 140.751 110.145 136.623 102.713C127.591 86.452 125.018 70.1196 126.504 56.5594C127.963 43.2526 133.468 31.8185 141.554 26.4098C149.273 21.2475 156.98 20.8446 163.654 24.3457ZM163.723 120.395C171.05 119.284 178.981 115.438 186.374 110.33C194.373 104.803 201.225 98.155 205.325 93.0623C209.637 87.7057 215.113 80.139 218.466 72.031C221.839 63.8747 222.72 56.0457 219.282 49.4015C217.41 45.7843 215.614 44.3222 214.303 43.7228C213.032 43.1412 211.542 43.062 209.606 43.6019C207.599 44.1617 205.405 45.3137 203.085 46.8288C201.422 47.9149 199.92 49.0287 198.437 50.1292C197.815 50.5904 197.196 51.0494 196.57 51.503C192.976 54.1072 189.382 57.3254 186.642 59.9475C185.284 61.2477 184.159 62.3784 183.377 63.1804C182.987 63.581 182.683 63.8985 182.48 64.1128C182.407 64.1891 182.348 64.2523 182.301 64.3014L182.252 64.354L182.198 64.4117L182.187 64.4239L182.186 64.4248C180.778 65.9431 178.58 66.4363 176.658 65.6654C174.76 64.9038 173.519 63.0644 173.52 61.0242C173.52 61.0223 173.52 61.0202 173.519 61.0178C173.519 61.0086 173.519 60.9954 173.518 60.9783C173.514 60.8947 173.503 60.7165 173.474 60.4423C173.415 59.8943 173.283 58.9605 172.983 57.6297C172.383 54.9682 171.112 50.7121 168.422 44.7745C165.836 39.0664 162.483 35.0239 159.008 33.2012C155.962 31.603 152.164 31.3441 147.114 34.722C142.432 37.8536 137.731 45.9139 136.445 57.6491C135.186 69.131 137.328 83.3883 145.365 97.8576C149.757 105.765 155.428 113.2 163.723 120.395ZM173.52 60.9678C173.52 60.9666 173.52 60.9654 173.52 60.9642C173.52 60.9613 173.52 60.9583 173.52 60.9554M173.52 60.9678L173.52 60.9665L173.52 60.9642" fill="#F9B088"/>
</g>
<g filter="url(#filter1_i_785_1634)">
<path d="M291.952 85.4358C291.952 92.3282 282.685 97.9072 282.29 98.1376C282.186 98.1993 282.07 98.2316 281.952 98.2316C281.833 98.2316 281.717 98.1993 281.613 98.1376C281.219 97.9072 271.952 92.3282 271.952 85.4358C271.953 83.8173 272.537 82.2656 273.575 81.1211C274.613 79.9766 276.02 79.3329 277.487 79.331C279.331 79.331 280.945 80.2054 281.952 81.6833C282.958 80.2054 284.572 79.331 286.416 79.331C287.883 79.3329 289.291 79.9766 290.328 81.1211C291.366 82.2656 291.95 83.8173 291.952 85.4358Z" fill="#F1493E"/>
</g>
<g filter="url(#filter2_i_785_1634)">
<path d="M67.9515 119.993C67.9515 124.346 62.3914 127.87 62.1546 128.015C62.0922 128.054 62.0224 128.074 61.9515 128.074C61.8807 128.074 61.8109 128.054 61.7485 128.015C61.5117 127.87 55.9515 124.346 55.9515 119.993C55.9525 118.971 56.3028 117.991 56.9255 117.268C57.5481 116.545 58.3924 116.138 59.273 116.137C60.3792 116.137 61.3478 116.69 61.9515 117.623C62.5553 116.69 63.5239 116.137 64.6301 116.137C65.5107 116.138 66.355 116.545 66.9776 117.268C67.6003 117.991 67.9506 118.971 67.9515 119.993Z" fill="#F1493E"/>
</g>
</g>
<defs>
<filter id="filter0_i_785_1634" x="-43.8014" y="22.0628" width="401.241" height="169.66" filterUnits="userSpaceOnUse" color-interpolation-filters="sRGB">
<feFlood flood-opacity="0" result="BackgroundImageFix"/>
<feBlend mode="normal" in="SourceGraphic" in2="BackgroundImageFix" result="shape"/>
<feColorMatrix in="SourceAlpha" type="matrix" values="0 0 0 0 0 0 0 0 0 0 0 0 0 0 0 0 0 0 127 0" result="hardAlpha"/>
<feOffset/>
<feGaussianBlur stdDeviation="2"/>
<feComposite in2="hardAlpha" operator="arithmetic" k2="-1" k3="1"/>
<feColorMatrix type="matrix" values="0 0 0 0 0.90829 0 0 0 0 0.390152 0 0 0 0 0.27501 0 0 0 1 0"/>
<feBlend mode="normal" in2="shape" result="effect1_innerShadow_785_1634"/>
</filter>
<filter id="filter1_i_785_1634" x="271.952" y="79.331" width="20" height="18.9005" filterUnits="userSpaceOnUse" color-interpolation-filters="sRGB">
<feFlood flood-opacity="0" result="BackgroundImageFix"/>
<feBlend mode="normal" in="SourceGraphic" in2="BackgroundImageFix" result="shape"/>
<feColorMatrix in="SourceAlpha" type="matrix" values="0 0 0 0 0 0 0 0 0 0 0 0 0 0 0 0 0 0 127 0" result="hardAlpha"/>
<feOffset/>
<feGaussianBlur stdDeviation="2"/>
<feComposite in2="hardAlpha" operator="arithmetic" k2="-1" k3="1"/>
<feColorMatrix type="matrix" values="0 0 0 0 0.90829 0 0 0 0 0.390152 0 0 0 0 0.27501 0 0 0 1 0"/>
<feBlend mode="normal" in2="shape" result="effect1_innerShadow_785_1634"/>
</filter>
<filter id="filter2_i_785_1634" x="55.9515" y="116.137" width="12" height="11.9372" filterUnits="userSpaceOnUse" color-interpolation-filters="sRGB">
<feFlood flood-opacity="0" result="BackgroundImageFix"/>
<feBlend mode="normal" in="SourceGraphic" in2="BackgroundImageFix" result="shape"/>
<feColorMatrix in="SourceAlpha" type="matrix" values="0 0 0 0 0 0 0 0 0 0 0 0 0 0 0 0 0 0 127 0" result="hardAlpha"/>
<feOffset/>
<feGaussianBlur stdDeviation="2"/>
<feComposite in2="hardAlpha" operator="arithmetic" k2="-1" k3="1"/>
<feColorMatrix type="matrix" values="0 0 0 0 0.90829 0 0 0 0 0.390152 0 0 0 0 0.27501 0 0 0 1 0"/>
<feBlend mode="normal" in2="shape" result="effect1_innerShadow_785_1634"/>
</filter>
<clipPath id="clip0_785_1634">
<rect width="345" height="190" fill="white"/>
</clipPath>
</defs>
</svg>
