<svg width="320" height="168" viewBox="0 0 320 168" fill="none" xmlns="http://www.w3.org/2000/svg">
<g filter="url(#filter0_i_528_1345)">
<path fill-rule="evenodd" clip-rule="evenodd" d="M46.9471 15.3841C47.8777 12.7842 46.5246 9.92217 43.9247 8.99152C41.3248 8.06086 38.4628 9.41403 37.5321 12.0139C36.0489 16.1573 35.9263 21.2304 36.5834 25.9755C31.9316 23.9314 27.6358 23.1396 23.7274 23.119C18.2764 23.0904 13.4994 24.714 11.0128 25.5592C10.446 25.7518 9.99825 25.904 9.68858 25.987C7.02125 26.7017 5.43834 29.4434 6.15305 32.1107C6.86776 34.778 9.60944 36.3609 12.2768 35.6462C13.273 35.3793 14.2109 35.0668 15.1488 34.7543L15.1489 34.7543C17.6316 33.9272 20.1137 33.1002 23.6749 33.1189C26.8571 33.1356 30.9423 33.9271 35.9393 36.8688C20.4931 44.9207 12.1396 62.8671 16.8351 80.3911C22.2669 100.663 43.1037 112.693 63.3754 107.261C83.6471 101.829 95.6773 80.9925 90.2455 60.7208C85.6964 43.7434 70.3423 32.5466 53.5642 32.5465C54.1662 31.6161 54.8383 30.6756 55.5743 29.7509C58.2045 26.4461 61.2691 23.8228 64.1769 22.5566C66.7087 21.4541 67.8674 18.508 66.7649 15.9762C65.6624 13.4444 62.7162 12.2857 60.1844 13.3881C55.2633 15.531 50.9788 19.4666 47.7499 23.5236C47.3419 24.0363 46.9446 24.5585 46.5596 25.088C46.5402 24.9618 46.5216 24.8357 46.5037 24.7095C45.9528 20.8264 46.1948 17.4856 46.9471 15.3841ZM80.5862 63.309C84.5886 78.2461 75.7243 93.5995 60.7872 97.6019C45.8502 101.604 30.4968 92.7399 26.4944 77.8029C22.492 62.8658 31.3563 47.5124 46.2934 43.51C61.2304 39.5077 76.5839 48.372 80.5862 63.309Z" fill="#FF6E2F"/>
</g>
<g filter="url(#filter1_i_528_1345)">
<path fill-rule="evenodd" clip-rule="evenodd" d="M266.377 35.3668C267.308 32.7669 265.955 29.9049 263.355 28.9742C260.755 28.0435 257.893 29.3967 256.962 31.9966C255.479 36.14 255.357 41.2131 256.014 45.9582C251.362 43.9141 247.066 43.1222 243.158 43.1017C237.707 43.0731 232.93 44.6967 230.443 45.5419C229.876 45.7345 229.429 45.8867 229.119 45.9697C226.452 46.6844 224.869 49.426 225.583 52.0934C226.298 54.7607 229.04 56.3436 231.707 55.6289C232.703 55.362 233.641 55.0495 234.579 54.737L234.579 54.737C237.062 53.9098 239.544 53.0829 243.105 53.1016C246.287 53.1183 250.373 53.9097 255.37 56.8515C239.923 64.9034 231.57 82.8497 236.265 100.374C241.697 120.645 262.534 132.676 282.806 127.244C303.077 121.812 315.108 100.975 309.676 80.7035C305.127 63.7261 289.773 52.5293 272.995 52.5292C273.597 51.5988 274.269 50.6582 275.005 49.7336C277.635 46.4288 280.699 43.8055 283.607 42.5393C286.139 41.4368 287.298 38.4907 286.195 35.9589C285.093 33.4271 282.147 32.2684 279.615 33.3708C274.694 35.5137 270.409 39.4493 267.18 43.5063C266.772 44.0189 266.375 44.5412 265.99 45.0706C265.971 44.9445 265.952 44.8183 265.934 44.6922C265.383 40.8091 265.625 37.4683 266.377 35.3668ZM300.017 83.2917C304.019 98.2288 295.155 113.582 280.218 117.585C265.281 121.587 249.927 112.723 245.925 97.7856C241.922 82.8485 250.787 67.4951 265.724 63.4927C280.661 59.4903 296.014 68.3547 300.017 83.2917Z" fill="#FF6E2F"/>
</g>
<g filter="url(#filter2_i_528_1345)">
<path fill-rule="evenodd" clip-rule="evenodd" d="M160.133 65.3668C159.203 62.7669 160.556 59.9048 163.156 58.9742C165.756 58.0435 168.618 59.3967 169.548 61.9966C171.032 66.14 171.154 71.2131 170.497 75.9582C175.149 73.9141 179.445 73.1222 183.353 73.1017C188.804 73.0731 193.581 74.6967 196.068 75.5419C196.634 75.7345 197.082 75.8867 197.392 75.9696C200.059 76.6844 201.642 79.426 200.927 82.0934C200.213 84.7607 197.471 86.3436 194.804 85.6289C193.807 85.362 192.869 85.0495 191.932 84.737L191.932 84.737C189.449 83.9098 186.967 83.0829 183.405 83.1016C180.223 83.1183 176.138 83.9097 171.141 86.8515C186.587 94.9034 194.941 112.85 190.245 130.374C184.813 150.645 163.977 162.676 143.705 157.244C123.433 151.812 111.403 130.975 116.835 110.704C121.384 93.7261 136.738 82.5292 153.516 82.5292C152.914 81.5988 152.242 80.6582 151.506 79.7336C148.876 76.4288 145.811 73.8055 142.904 72.5393C140.372 71.4368 139.213 68.4906 140.316 65.9588C141.418 63.427 144.364 62.2683 146.896 63.3708C151.817 65.5137 156.102 69.4493 159.331 73.5062C159.739 74.0189 160.136 74.5412 160.521 75.0706C160.54 74.9445 160.559 74.8183 160.577 74.6921C161.128 70.8091 160.886 67.4683 160.133 65.3668ZM126.494 113.292C122.492 128.229 131.356 143.582 146.293 147.585C161.23 151.587 176.584 142.723 180.586 127.786C184.588 112.849 175.724 97.4951 160.787 93.4927C145.85 89.4903 130.497 98.3547 126.494 113.292Z" fill="#FF6E2F"/>
</g>
<path d="M99.2091 24.7349C99.875 23.0466 102.264 23.0466 102.93 24.7349L104.569 28.8911C104.773 29.4065 105.181 29.8145 105.696 30.0178L109.852 31.657C111.541 32.3228 111.541 34.7122 109.852 35.378L105.696 37.0172C105.181 37.2205 104.773 37.6285 104.569 38.1439L102.93 42.3001C102.264 43.9884 99.875 43.9884 99.2091 42.3001L97.57 38.1439C97.3667 37.6285 96.9587 37.2205 96.4432 37.0172L92.2871 35.378C90.5988 34.7122 90.5988 32.3228 92.2871 31.657L96.4432 30.0178C96.9587 29.8145 97.3667 29.4065 97.57 28.8911L99.2091 24.7349Z" fill="#758947"/>
<path d="M218.984 136.844C219.527 135.468 221.473 135.468 222.016 136.844L223.352 140.23C223.517 140.65 223.85 140.983 224.27 141.148L227.656 142.484C229.032 143.027 229.032 144.974 227.656 145.516L224.27 146.852C223.85 147.017 223.517 147.35 223.352 147.77L222.016 151.156C221.473 152.532 219.527 152.532 218.984 151.156L217.648 147.77C217.483 147.35 217.15 147.017 216.73 146.852L213.344 145.516C211.968 144.974 211.968 143.027 213.344 142.484L216.73 141.148C217.15 140.983 217.483 140.65 217.648 140.23L218.984 136.844Z" fill="#758947"/>
<defs>
<filter id="filter0_i_528_1345" x="5.98145" y="8.69765" width="85.5683" height="99.8677" filterUnits="userSpaceOnUse" color-interpolation-filters="sRGB">
<feFlood flood-opacity="0" result="BackgroundImageFix"/>
<feBlend mode="normal" in="SourceGraphic" in2="BackgroundImageFix" result="shape"/>
<feColorMatrix in="SourceAlpha" type="matrix" values="0 0 0 0 0 0 0 0 0 0 0 0 0 0 0 0 0 0 127 0" result="hardAlpha"/>
<feOffset/>
<feGaussianBlur stdDeviation="2"/>
<feComposite in2="hardAlpha" operator="arithmetic" k2="-1" k3="1"/>
<feColorMatrix type="matrix" values="0 0 0 0 0.674957 0 0 0 0 0.20191 0 0 0 0 0 0 0 0 0.5 0"/>
<feBlend mode="normal" in2="shape" result="effect1_innerShadow_528_1345"/>
</filter>
<filter id="filter1_i_528_1345" x="225.412" y="28.6803" width="85.5683" height="99.8677" filterUnits="userSpaceOnUse" color-interpolation-filters="sRGB">
<feFlood flood-opacity="0" result="BackgroundImageFix"/>
<feBlend mode="normal" in="SourceGraphic" in2="BackgroundImageFix" result="shape"/>
<feColorMatrix in="SourceAlpha" type="matrix" values="0 0 0 0 0 0 0 0 0 0 0 0 0 0 0 0 0 0 127 0" result="hardAlpha"/>
<feOffset/>
<feGaussianBlur stdDeviation="2"/>
<feComposite in2="hardAlpha" operator="arithmetic" k2="-1" k3="1"/>
<feColorMatrix type="matrix" values="0 0 0 0 0.674957 0 0 0 0 0.20191 0 0 0 0 0 0 0 0 0.5 0"/>
<feBlend mode="normal" in2="shape" result="effect1_innerShadow_528_1345"/>
</filter>
<filter id="filter2_i_528_1345" x="115.531" y="58.6803" width="85.5683" height="99.8677" filterUnits="userSpaceOnUse" color-interpolation-filters="sRGB">
<feFlood flood-opacity="0" result="BackgroundImageFix"/>
<feBlend mode="normal" in="SourceGraphic" in2="BackgroundImageFix" result="shape"/>
<feColorMatrix in="SourceAlpha" type="matrix" values="0 0 0 0 0 0 0 0 0 0 0 0 0 0 0 0 0 0 127 0" result="hardAlpha"/>
<feOffset/>
<feGaussianBlur stdDeviation="2"/>
<feComposite in2="hardAlpha" operator="arithmetic" k2="-1" k3="1"/>
<feColorMatrix type="matrix" values="0 0 0 0 0.674957 0 0 0 0 0.20191 0 0 0 0 0 0 0 0 0.5 0"/>
<feBlend mode="normal" in2="shape" result="effect1_innerShadow_528_1345"/>
</filter>
</defs>
</svg>
