<svg width="100%" height="100%" viewBox="0 0 345 190" fill="none" xmlns="http://www.w3.org/2000/svg">
<g filter="url(#filter0_i_785_1528)">
<path fill-rule="evenodd" clip-rule="evenodd" d="M62.9471 24.3841C63.8778 21.7842 62.5246 18.9222 59.9247 17.9915C57.3248 17.0609 54.4628 18.414 53.5321 21.0139C52.0489 25.1573 51.9263 30.2304 52.5834 34.9755C47.9316 32.9314 43.6358 32.1396 39.7275 32.119C34.2765 32.0904 29.4995 33.714 27.0128 34.5592L27.0128 34.5592C26.4461 34.7518 25.9983 34.904 25.6886 34.987C23.0213 35.7017 21.4384 38.4434 22.1531 41.1107C22.8678 43.778 25.6095 45.3609 28.2768 44.6462C29.273 44.3793 30.211 44.0668 31.1488 43.7543L31.1489 43.7543C33.6316 42.9272 36.1138 42.1002 39.675 42.1189C42.8572 42.1356 46.9424 42.9271 51.9394 45.8688C36.4931 53.9207 28.1396 71.8671 32.8352 89.3911C38.2669 109.663 59.1038 121.693 79.3755 116.261C99.6472 110.829 111.677 89.9925 106.246 69.7208C101.696 52.7434 86.3423 41.5466 69.5643 41.5465C70.1662 40.6161 70.8384 39.6756 71.5743 38.7509C74.2045 35.4461 77.2691 32.8228 80.1769 31.5566C82.7087 30.4541 83.8674 27.508 82.7649 24.9762C81.6624 22.4444 78.7163 21.2857 76.1845 22.3881C71.2634 24.531 66.9788 28.4666 63.7499 32.5236C63.3419 33.0363 62.9447 33.5585 62.5597 34.088C62.5403 33.9618 62.5216 33.8357 62.5037 33.7095C61.9528 29.8264 62.1948 26.4856 62.9471 24.3841ZM96.5863 72.309C100.589 87.2461 91.7243 102.6 76.7873 106.602C61.8502 110.604 46.4968 101.74 42.4944 86.8029C38.492 71.8658 47.3564 56.5124 62.2934 52.51C77.2305 48.5077 92.5839 57.372 96.5863 72.309Z" fill="#FF6E2F"/>
</g>
<g filter="url(#filter1_i_785_1528)">
<path fill-rule="evenodd" clip-rule="evenodd" d="M282.377 44.3668C283.308 41.7669 281.955 38.9049 279.355 37.9742C276.755 37.0435 273.893 38.3967 272.962 40.9966C271.479 45.14 271.357 50.2131 272.014 54.9582C267.362 52.9141 263.066 52.1222 259.158 52.1017C253.707 52.0731 248.93 53.6967 246.443 54.5419L246.443 54.5419C245.876 54.7345 245.429 54.8867 245.119 54.9696C242.452 55.6844 240.869 58.426 241.583 61.0934C242.298 63.7607 245.04 65.3436 247.707 64.6289C248.703 64.362 249.641 64.0495 250.579 63.737C253.062 62.9098 255.544 62.0829 259.105 62.1016C262.287 62.1183 266.373 62.9097 271.37 65.8515C255.923 73.9034 247.57 91.8497 252.265 109.374C257.697 129.645 278.534 141.676 298.806 136.244C319.077 130.812 331.108 109.975 325.676 89.7035C321.127 72.7261 305.773 61.5292 288.995 61.5292C289.597 60.5988 290.269 59.6582 291.005 58.7336C293.635 55.4288 296.699 52.8055 299.607 51.5393C302.139 50.4368 303.298 47.4906 302.195 44.9588C301.093 42.427 298.147 41.2684 295.615 42.3708C290.694 44.5137 286.409 48.4493 283.18 52.5062C282.772 53.0189 282.375 53.5412 281.99 54.0706C281.971 53.9445 281.952 53.8183 281.934 53.6922C281.383 49.8091 281.625 46.4683 282.377 44.3668ZM316.017 92.2917C320.019 107.229 311.155 122.582 296.218 126.585C281.281 130.587 265.927 121.723 261.925 106.786C257.922 91.8485 266.787 76.4951 281.724 72.4927C296.661 68.4903 312.014 77.3547 316.017 92.2917Z" fill="#FF6E2F"/>
</g>
<g filter="url(#filter2_i_785_1528)">
<path fill-rule="evenodd" clip-rule="evenodd" d="M176.133 74.3668C175.203 71.7669 176.556 68.9048 179.156 67.9742C181.756 67.0435 184.618 68.3967 185.548 70.9966C187.031 75.14 187.154 80.2131 186.497 84.9582C191.149 82.9141 195.445 82.1222 199.353 82.1017C204.804 82.0731 209.581 83.6967 212.068 84.5419L212.068 84.5419C212.634 84.7345 213.082 84.8867 213.392 84.9696C216.059 85.6844 217.642 88.426 216.927 91.0934C216.213 93.7607 213.471 95.3436 210.804 94.6289C209.807 94.362 208.869 94.0495 207.932 93.737L207.932 93.737C205.449 92.9098 202.967 92.0829 199.405 92.1016C196.223 92.1183 192.138 92.9097 187.141 95.8515C202.587 103.903 210.941 121.85 206.245 139.374C200.813 159.645 179.977 171.676 159.705 166.244C139.433 160.812 127.403 139.975 132.835 119.704C137.384 102.726 152.738 91.5292 169.516 91.5292C168.914 90.5988 168.242 89.6582 167.506 88.7336C164.876 85.4288 161.811 82.8055 158.904 81.5393C156.372 80.4368 155.213 77.4906 156.316 74.9588C157.418 72.427 160.364 71.2683 162.896 72.3708C167.817 74.5137 172.102 78.4493 175.331 82.5062C175.739 83.0189 176.136 83.5412 176.521 84.0706C176.54 83.9445 176.559 83.8183 176.577 83.6921C177.128 79.8091 176.886 76.4683 176.133 74.3668ZM142.494 122.292C138.492 137.229 147.356 152.582 162.293 156.585C177.23 160.587 192.584 151.723 196.586 136.786C200.588 121.849 191.724 106.495 176.787 102.493C161.85 98.4903 146.497 107.355 142.494 122.292Z" fill="#FF6E2F"/>
</g>
<path d="M115.209 33.7349C115.875 32.0466 118.264 32.0466 118.93 33.7349L120.569 37.8911C120.773 38.4065 121.181 38.8145 121.696 39.0178L125.852 40.657C127.541 41.3228 127.541 43.7122 125.852 44.378L121.696 46.0172C121.181 46.2205 120.773 46.6285 120.569 47.1439L118.93 51.3001C118.264 52.9884 115.875 52.9884 115.209 51.3001L113.57 47.1439C113.367 46.6285 112.959 46.2205 112.443 46.0172L108.287 44.378C106.599 43.7122 106.599 41.3228 108.287 40.657L112.443 39.0178C112.959 38.8145 113.367 38.4065 113.57 37.8911L115.209 33.7349Z" fill="#758947"/>
<path d="M234.984 145.844C235.527 144.468 237.473 144.468 238.016 145.844L239.352 149.23C239.517 149.65 239.85 149.983 240.27 150.148L243.656 151.484C245.032 152.027 245.032 153.974 243.656 154.516L240.27 155.852C239.85 156.017 239.517 156.35 239.352 156.77L238.016 160.156C237.473 161.532 235.527 161.532 234.984 160.156L233.648 156.77C233.483 156.35 233.15 156.017 232.73 155.852L229.344 154.516C227.968 153.974 227.968 152.027 229.344 151.484L232.73 150.148C233.15 149.983 233.483 149.65 233.648 149.23L234.984 145.844Z" fill="#758947"/>
<defs>
<filter id="filter0_i_785_1528" x="21.9814" y="17.6976" width="85.5684" height="99.8677" filterUnits="userSpaceOnUse" color-interpolation-filters="sRGB">
<feFlood flood-opacity="0" result="BackgroundImageFix"/>
<feBlend mode="normal" in="SourceGraphic" in2="BackgroundImageFix" result="shape"/>
<feColorMatrix in="SourceAlpha" type="matrix" values="0 0 0 0 0 0 0 0 0 0 0 0 0 0 0 0 0 0 127 0" result="hardAlpha"/>
<feOffset/>
<feGaussianBlur stdDeviation="2"/>
<feComposite in2="hardAlpha" operator="arithmetic" k2="-1" k3="1"/>
<feColorMatrix type="matrix" values="0 0 0 0 0.674957 0 0 0 0 0.20191 0 0 0 0 0 0 0 0 0.5 0"/>
<feBlend mode="normal" in2="shape" result="effect1_innerShadow_785_1528"/>
</filter>
<filter id="filter1_i_785_1528" x="241.412" y="37.6803" width="85.5684" height="99.8678" filterUnits="userSpaceOnUse" color-interpolation-filters="sRGB">
<feFlood flood-opacity="0" result="BackgroundImageFix"/>
<feBlend mode="normal" in="SourceGraphic" in2="BackgroundImageFix" result="shape"/>
<feColorMatrix in="SourceAlpha" type="matrix" values="0 0 0 0 0 0 0 0 0 0 0 0 0 0 0 0 0 0 127 0" result="hardAlpha"/>
<feOffset/>
<feGaussianBlur stdDeviation="2"/>
<feComposite in2="hardAlpha" operator="arithmetic" k2="-1" k3="1"/>
<feColorMatrix type="matrix" values="0 0 0 0 0.674957 0 0 0 0 0.20191 0 0 0 0 0 0 0 0 0.5 0"/>
<feBlend mode="normal" in2="shape" result="effect1_innerShadow_785_1528"/>
</filter>
<filter id="filter2_i_785_1528" x="131.531" y="67.6803" width="85.5684" height="99.8678" filterUnits="userSpaceOnUse" color-interpolation-filters="sRGB">
<feFlood flood-opacity="0" result="BackgroundImageFix"/>
<feBlend mode="normal" in="SourceGraphic" in2="BackgroundImageFix" result="shape"/>
<feColorMatrix in="SourceAlpha" type="matrix" values="0 0 0 0 0 0 0 0 0 0 0 0 0 0 0 0 0 0 127 0" result="hardAlpha"/>
<feOffset/>
<feGaussianBlur stdDeviation="2"/>
<feComposite in2="hardAlpha" operator="arithmetic" k2="-1" k3="1"/>
<feColorMatrix type="matrix" values="0 0 0 0 0.674957 0 0 0 0 0.20191 0 0 0 0 0 0 0 0 0.5 0"/>
<feBlend mode="normal" in2="shape" result="effect1_innerShadow_785_1528"/>
</filter>
</defs>
</svg>
